<svg width="100" height="100" viewBox="0 0 100 100" fill="none" xmlns="http://www.w3.org/2000/svg">
<g clip-path="url(#clip0_1_770)">
<path d="M27.9167 50C27.9323 54.6178 28.5107 59.2165 29.639 63.6944H47.639V37.3611H29.389C28.4287 41.506 27.9349 45.7453 27.9167 50Z" fill="#21A038"/>
<path d="M52.3611 63.7222H70.3611C71.5385 59.2411 72.1635 54.6328 72.2222 50C72.2131 45.7464 71.7286 41.5071 70.7778 37.3611H52.3611V63.7222Z" fill="#21A038"/>
<path d="M92 35.5834C90.3206 36.3539 88.5456 36.8958 86.7222 37.1945H86.1111C84.2057 37.4893 82.2664 37.4893 80.3611 37.1945H75.3611C76.3043 41.3988 76.7979 45.6914 76.8333 50.0001C76.819 54.6097 76.2879 59.2032 75.25 63.6945H86.3611C85.7134 65.4232 84.9429 67.1035 84.0555 68.7223H73.8889C71.9876 74.6745 69.1765 80.2966 65.5555 85.3889C62.8834 86.5535 60.0878 87.4109 57.2222 87.9445C62.3541 82.3682 66.3038 75.8105 68.8333 68.6667H52.3889V88.5278H47.6944V68.6389H31.1666C33.6928 75.7926 37.6427 82.36 42.7777 87.9445C39.9712 87.4166 37.2322 86.5781 34.6111 85.4445C30.9773 80.3095 28.1658 74.6396 26.2777 68.6389H16.0555C15.1681 67.0201 14.3977 65.3399 13.75 63.6112H24.8611C23.8199 59.1481 23.2796 54.5829 23.25 50.0001C23.2515 45.7521 23.6984 41.516 24.5833 37.3612H13.2222C13.8063 35.6375 14.5118 33.9574 15.3333 32.3334H25.9166C27.9024 25.7196 30.9821 19.4852 35.0277 13.8889C37.5932 12.8259 40.2662 12.0436 43 11.5556C37.474 17.4863 33.3036 24.5475 30.7777 32.2501H47.6944V11.1112H52.3889V32.3334H69.3055V31.9723C65.5739 28.5171 63.241 23.8119 62.75 18.7501C61.0892 16.2452 59.2314 13.8765 57.1944 11.6667C59.1381 12.0412 61.0509 12.5612 62.9166 13.2223C63.216 11.4382 63.7483 9.70112 64.5 8.05562C54.9619 4.75759 44.5873 4.79112 35.0708 8.15073C25.5542 11.5103 17.458 17.9975 12.1044 26.5527C6.75083 35.1079 4.45628 45.2255 5.59551 55.2532C6.73473 65.2809 11.2404 74.626 18.3767 81.7622C25.5129 88.8985 34.858 93.4042 44.8857 94.5434C54.9134 95.6826 65.031 93.3881 73.5862 88.0345C82.1414 82.6809 88.6286 74.5847 91.9882 65.0681C95.3478 55.5516 95.3813 45.177 92.0833 35.6389L92 35.5834Z" fill="#21A038"/>
<path fill-rule="evenodd" clip-rule="evenodd" d="M97.2221 16.6667C97.2221 24.3373 91.0038 30.5556 83.3332 30.5556C75.6626 30.5556 69.4443 24.3373 69.4443 16.6667C69.4443 8.9961 75.6626 2.77783 83.3332 2.77783C91.0038 2.77783 97.2221 8.9961 97.2221 16.6667ZM85.7823 13.2958L83.3332 8.33339L80.8841 13.2958L75.4078 14.0916L79.3705 17.9543L78.435 23.4085L83.3332 20.8334L88.2314 23.4085L87.296 17.9543L91.2587 14.0916L85.7823 13.2958Z" fill="#21A038"/>
</g>
<defs>
<clipPath id="clip0_1_770">
<rect width="100" height="100" fill="white"/>
</clipPath>
</defs>
</svg>
