<svg width="100" height="100" viewBox="0 0 100 100" fill="none" xmlns="http://www.w3.org/2000/svg">
<path d="M91.6668 34.0083V34.3125C91.6668 37.8958 91.6668 39.6916 90.8043 41.1583C89.9418 42.625 88.371 43.4958 85.2377 45.2416L81.9335 47.075C84.2085 39.375 84.971 31.1 85.2502 24.025L85.2918 23.1041L85.3002 22.8875C88.0127 23.8291 89.5377 24.5333 90.4877 25.85C91.6668 27.4875 91.6668 29.6625 91.6668 34.0083ZM8.3335 34.0083V34.3125C8.3335 37.8958 8.3335 39.6916 9.196 41.1583C10.0585 42.625 11.6293 43.4958 14.7627 45.2416L18.071 47.075C15.7918 39.375 15.0293 31.1 14.7502 24.025L14.7085 23.1041L14.7043 22.8875C11.9877 23.8291 10.4627 24.5333 9.51266 25.85C8.3335 27.4875 8.3335 29.6666 8.3335 34.0083Z" fill="#21A038"/>
<path fill-rule="evenodd" clip-rule="evenodd" d="M68.2374 9.77921C62.209 8.79118 56.1087 8.30756 49.9999 8.33338C42.5708 8.33338 36.4458 8.98755 31.7624 9.77921C27.0166 10.5792 24.6458 10.9792 22.6624 13.4209C20.6833 15.8625 20.7874 18.5 20.9958 23.775C21.7166 41.8917 25.6249 64.5251 46.8749 66.5251V81.2501H40.9166C39.9537 81.2506 39.0207 81.5847 38.2763 82.1954C37.5319 82.8061 37.022 83.6559 36.8333 84.6001L36.0416 88.5417H24.9999C24.1711 88.5417 23.3763 88.871 22.7902 89.457C22.2042 90.0431 21.8749 90.8379 21.8749 91.6667C21.8749 92.4955 22.2042 93.2904 22.7902 93.8764C23.3763 94.4625 24.1711 94.7917 24.9999 94.7917H74.9999C75.8287 94.7917 76.6236 94.4625 77.2096 93.8764C77.7957 93.2904 78.1249 92.4955 78.1249 91.6667C78.1249 90.8379 77.7957 90.0431 77.2096 89.457C76.6236 88.871 75.8287 88.5417 74.9999 88.5417H63.9583L63.1666 84.6001C62.9779 83.6559 62.4679 82.8061 61.7235 82.1954C60.9791 81.5847 60.0461 81.2506 59.0833 81.2501H53.1249V66.5251C74.3749 64.5251 78.2874 41.8959 79.0041 23.775C79.2124 18.5 79.3208 15.8584 77.3374 13.4209C75.3541 10.9792 72.9833 10.5792 68.2374 9.77921ZM53.2791 24.1959C53.8502 24.4324 54.3383 24.833 54.6817 25.347C55.0251 25.861 55.2083 26.4652 55.2083 27.0834V43.75C55.2083 44.5788 54.879 45.3737 54.293 45.9598C53.7069 46.5458 52.9121 46.875 52.0833 46.875C51.2545 46.875 50.4596 46.5458 49.8735 45.9598C49.2875 45.3737 48.9583 44.5788 48.9583 43.75V34.625L48.0416 35.5417C47.7555 35.8487 47.4105 36.095 47.0272 36.2658C46.6438 36.4366 46.23 36.5284 45.8104 36.5358C45.3908 36.5433 44.974 36.4661 44.5849 36.3089C44.1958 36.1517 43.8423 35.9178 43.5456 35.621C43.2489 35.3243 43.0149 34.9708 42.8577 34.5817C42.7006 34.1926 42.6234 33.7758 42.6308 33.3562C42.6382 32.9366 42.73 32.5228 42.9008 32.1395C43.0716 31.7561 43.3179 31.4111 43.6249 31.125L49.8749 24.875C50.3116 24.438 50.8681 24.1402 51.474 24.0193C52.0799 23.8984 52.7081 23.9599 53.2791 24.1959Z" fill="#21A038"/>
</svg>
