<svg width="100" height="100" viewBox="0 0 100 100" fill="none" xmlns="http://www.w3.org/2000/svg">
<path fill-rule="evenodd" clip-rule="evenodd" d="M70.8128 6.52001C71.1498 5.97883 71.6397 5.5497 72.2205 5.28684C72.8013 5.02398 73.447 4.9392 74.076 5.0432L90.6563 7.80981C91.4994 7.95042 92.2521 8.41998 92.7491 9.1153C93.2461 9.81062 93.4467 10.6748 93.3069 11.518L90.5467 28.1047C90.4414 28.7335 90.152 29.3169 89.7152 29.7813C89.2784 30.2456 88.7137 30.5701 88.0926 30.7137C87.4715 30.8572 86.8217 30.8134 86.2254 30.5878C85.6292 30.3622 85.1132 29.9649 84.7426 29.4461L80.267 23.1906L57.2184 37.9201C56.2355 38.549 55.0583 38.8015 53.904 38.6308C52.7496 38.4601 51.6959 37.8779 50.9371 36.9914L38.0842 21.9653L14.0489 34.3151C12.9081 34.9018 11.5809 35.0112 10.3594 34.6194C9.13791 34.2275 8.12209 33.3665 7.53543 32.2256C6.94878 31.0848 6.83933 29.7577 7.23119 28.5362C7.62304 27.3147 8.48408 26.2988 9.6249 25.7122L37.0653 11.6083C38.0341 11.1106 39.1425 10.9544 40.2111 11.1651C41.2796 11.3758 42.2458 11.9409 42.9532 12.7691L55.5545 27.505L74.6435 15.3035L70.9225 10.0992C70.5525 9.58022 70.3446 8.96326 70.3251 8.32622C70.3056 7.68919 70.4753 7.06065 70.8128 6.52001ZM28.5978 38.1845L9.88286 48.8898C9.14353 49.3121 8.52878 49.9221 8.10074 50.6582C7.67271 51.3942 7.44656 52.2302 7.44515 53.0816V90.1633C7.44515 92.8331 9.61201 95 12.2819 95H28.5978V38.1845ZM36.659 95H60.3139V51.0696L49.6795 56.3835L39.0516 37.7847C38.5149 36.8388 37.6739 36.1024 36.6655 35.6952L36.659 95ZM86.4451 95H68.3751V47.0389L84.2847 39.0809C85.0221 38.7128 85.8414 38.5392 86.6647 38.5766C87.4881 38.614 88.2882 38.8612 88.9892 39.2947C89.6901 39.7282 90.2687 40.3336 90.67 41.0536C91.0712 41.7735 91.2818 42.584 91.2819 43.4082V90.1633C91.2819 91.4461 90.7723 92.6763 89.8652 93.5834C88.9582 94.4904 87.7279 95 86.4451 95Z" fill="#21A038"/>
</svg>
