<svg width="100" height="100" viewBox="0 0 100 100" fill="none" xmlns="http://www.w3.org/2000/svg">
<path d="M50 5.66406C46.6211 5.66406 43.2227 6.05078 40.6055 6.77344C37.9883 7.49414 36.3086 8.65625 35.957 9.38086C30.293 20.7031 29.9219 34.8828 29.9023 44.3359H70.0977C70.0781 34.8828 69.707 20.7031 64.043 9.38086C63.6914 8.65625 62.0117 7.49414 59.3945 6.77344C56.7773 6.05078 53.3789 5.66406 50 5.66406ZM9.375 32.6172V36.1328H18.75V32.6172H9.375ZM81.25 32.6172V36.1328H90.625V32.6172H81.25ZM13.8672 39.8438V53.2812L19.9609 57.3438C20.2734 56.1719 20.7812 55.0781 21.3867 54.082L17.3828 51.4063V39.8438H13.8672ZM82.6172 39.8438V51.4063L78.6133 54.082C79.2188 55.0781 79.7266 56.1719 80.0391 57.3438L86.1328 53.2812V39.8438H82.6172ZM45.5078 47.8516V50.5859H54.4922V47.8516H45.5078ZM25.8008 54.1016C24.5898 55.4492 23.4766 57.3047 23.2227 58.8867C22.9297 60.5859 23.1836 61.8359 25.4492 63.0859H74.5508C76.8164 61.8359 77.0703 60.5859 76.7773 58.8867C76.5234 57.3047 75.4102 55.4492 74.1992 54.1016H25.8008ZM48.2422 66.6016V72.8516L24.5703 78.7695L25.4297 82.168L48.2422 76.4648V82.0312C48.8086 81.9141 49.3945 81.8359 50 81.8359C50.6055 81.8359 51.1914 81.9141 51.7578 82.0312V76.4648L74.5703 82.168L75.4297 78.7695L51.7578 72.8516V66.6016H48.2422ZM25 85.3516C22.5 85.3516 20.5078 87.3438 20.5078 89.8438C20.5078 92.3438 22.5 94.3359 25 94.3359C27.5 94.3359 29.4922 92.3438 29.4922 89.8438C29.4922 87.3438 27.5 85.3516 25 85.3516ZM50 85.3516C47.5 85.3516 45.5078 87.3438 45.5078 89.8438C45.5078 92.3438 47.5 94.3359 50 94.3359C52.5 94.3359 54.4922 92.3438 54.4922 89.8438C54.4922 87.3438 52.5 85.3516 50 85.3516ZM75 85.3516C72.5 85.3516 70.5078 87.3438 70.5078 89.8438C70.5078 92.3438 72.5 94.3359 75 94.3359C77.5 94.3359 79.4922 92.3438 79.4922 89.8438C79.4922 87.3438 77.5 85.3516 75 85.3516Z" fill="#21A038"/>
</svg>
