<svg width="100" height="100" viewBox="0 0 100 100" fill="none" xmlns="http://www.w3.org/2000/svg">
<path fill-rule="evenodd" clip-rule="evenodd" d="M20.7484 58.0005L6.25 83.7373L28.526 80.3325L40.2365 99.5855L49.1886 70.386C49.1332 70.4017 49.0757 70.4172 49.0163 70.4324L42.0565 73.6446C40.1885 75.011 38.271 75.0031 37.581 75.0003H37.5809L37.5006 75C33.3368 75 29.6189 72.2319 28.3649 67.8006L25.4581 60.2427C25.2976 60.005 24.9957 59.7031 24.7579 59.5426L20.7484 58.0005ZM50.9922 71.0126L59.5989 99.5869L71.3095 80.334L93.5855 83.7387L79.4182 58.3215L74.6183 60.1676C74.3806 60.3281 74.0787 60.63 73.9182 60.8677L70.9174 68.6699L70.7184 69.1873L70.4109 69.6485C68.5714 72.4077 65.3264 75 61.2506 75L61.1704 75.0003H61.1703C60.4803 75.0031 58.5628 75.011 56.6948 73.6446L50.9922 71.0126ZM30.7802 60.1519L44.9962 66.7809L39.3756 69.375C38.7506 70 38.1256 70 37.5006 70C35.6256 70 33.7506 68.75 33.1256 66.25L30.7802 60.1519ZM68.7519 60.3716L66.2506 66.875C65.0006 68.75 63.1256 70 61.2506 70C60.6256 70 60.0006 70 59.3756 69.375L54.3843 67.0714L68.7519 60.3716Z" fill="#21A038"/>
<path d="M80.6256 36.875C80.0006 35.625 80.0006 33.75 80.6256 32.5L84.3756 25C85.6256 22.5 84.3756 19.375 81.2506 18.125L73.1256 15C71.8756 14.375 70.6256 13.125 70.0006 11.875L66.8756 3.75C66.2506 1.25 64.3756 0 62.5006 0C61.8756 0 60.6256 0 60.0006 0.625L51.8756 4.375H50.0006C49.3756 4.375 48.7506 4.375 48.1256 3.75L40.0006 0.625C39.3756 0 38.1256 0 37.5006 0C35.6256 0 33.7506 1.25 32.5006 3.125L29.3756 11.875C29.3756 13.125 28.1256 14.375 26.8756 15L18.1256 18.125C15.6256 18.75 14.3756 21.875 15.6256 25L19.3756 33.125C20.0006 34.375 20.0006 36.25 19.3756 37.5L15.6256 45C14.3756 47.5 15.6256 50.625 18.7506 51.875L26.8756 55C28.1256 55.625 29.3756 56.875 30.0006 58.125L33.1256 66.25C33.7506 68.75 35.6256 70 37.5006 70C38.1256 70 38.7506 70 39.3756 69.375L47.5006 65.625C48.1256 65.625 48.7506 65 49.3756 65C50.0006 65 50.6256 65 51.2506 65.625L59.3756 69.375C60.0006 70 60.6256 70 61.2506 70C63.1256 70 65.0006 68.75 66.2506 66.875L69.3756 58.75C70.0006 57.5 71.2506 56.25 72.5006 55.625L80.6256 52.5C83.1256 51.25 85.0006 48.125 83.7506 45.625L80.6256 36.875ZM50.0006 60C36.2506 60 25.0006 48.75 25.0006 35C25.0006 21.25 36.2506 10 50.0006 10C63.7506 10 75.0006 21.25 75.0006 35C75.0006 48.75 63.7506 60 50.0006 60Z" fill="#21A038"/>
<path d="M68.75 35.0006C68.75 39.9734 66.7746 44.7426 63.2583 48.2589C59.7419 51.7752 54.9728 53.7506 50 53.7506C45.0272 53.7506 40.2581 51.7752 36.7417 48.2589C33.2254 44.7426 31.25 39.9734 31.25 35.0006C31.25 30.0278 33.2254 25.2587 36.7417 21.7424C40.2581 18.2261 45.0272 16.2506 50 16.2506C54.9728 16.2506 59.7419 18.2261 63.2583 21.7424C66.7746 25.2587 68.75 30.0278 68.75 35.0006Z" fill="#21A038"/>
</svg>
